PathFileType	4	(X/Y/Z)	C:\Users\WrightLab\Desktop\Jo\P5V15.trc
DataRate	CameraRate	NumFrames	NumMarkers	Units	OrigDataRate	OrigDataStartFrame	OrigNumFrames
100.00	100.00	       7	19	mm	100.00	403	       805
Frame#	Time	Headset_Front			Headset_Back			Headset_Left			Headset_Right			Left_Shoulder			Right_Shoulder			Sternum			C7			Left Elbow			Right Elbow			Left Wrist			Right Wrist			Left ASIS			Right ASIS			S2			Left Knee			Right Knee			Left Ankle			Right Ankle			
		X1	Y1	Z1	X2	Y2	Z2	X3	Y3	Z3	X4	Y4	Z4	X5	Y5	Z5	X6	Y6	Z6	X7	Y7	Z7	X8	Y8	Z8	X9	Y9	Z9	X10	Y10	Z10	X11	Y11	Z11	X12	Y12	Z12	X13	Y13	Z13	X14	Y14	Z14	X15	Y15	Z15	X16	Y16	Z16	X17	Y17	Z17	X18	Y18	Z18	X19	Y19	Z19	

403	4.020	-178.40178	1588.58191	210.00342	-35.87948	1433.79871	183.68896				32.62199	1526.46277	280.94843	-250.78212	1423.23950	243.53088				-63.35809	1314.19556	439.27518	-250.22693	1536.88416	463.35965	-303.85330	1177.21289	122.90370	-55.20102	1312.25647	796.10376	-260.87469	998.66687	-49.47200	92.07225	1109.94043	775.99518	-297.57288	1014.33911	614.86353	7.65243	1012.24500	661.18921	-85.89986	909.98999	407.19904	-104.52956	518.02356	379.56238	118.30571	600.79053	643.11694	-195.83389	107.17013	478.05432	-118.81719	208.98325	730.03833	
404	4.030	-174.53886	1587.54480	205.12274	-32.64692	1432.35535	178.85303				36.63777	1525.17920	275.55743	-247.15698	1422.13232	240.04893				-58.29632	1314.08386	434.65277	-245.28145	1537.22412	459.26395	-300.87906	1176.50854	120.49902	-49.79297	1314.52271	792.87970	-258.03650	997.39618	-52.06514	97.95873	1112.24194	773.22723	-292.04767	1014.54114	614.03961	12.85031	1013.49274	657.71185	-82.51623	909.40930	405.27313	-102.84190	518.04462	379.18027	123.78388	601.65753	638.88678	-195.83038	107.51404	478.10947	-98.39951	200.13730	723.38513	
405	4.040	-170.61879	1586.53784	200.26392	-29.86770	1431.54016	174.46031				40.87501	1523.49219	270.53098	-243.66536	1421.14026	236.46339				-54.41665	1313.58704	430.90085	-241.09956	1536.74084	454.97049	-297.62479	1174.72375	118.40636	-44.06947	1316.13257	788.92505	-255.15422	996.14905	-54.77406	104.03201	1114.09399	770.57758	-286.08749	1014.48810	613.19342	18.40378	1013.94299	654.25470	-79.34390	908.91650	403.20911	-101.98573	517.33508	379.03088	128.75720	601.95758	634.96405	-195.73022	107.63770	478.00046	-78.67168	191.96979	716.37927	
406	4.050	-167.08287	1585.38708	196.23283	-26.34907	1429.80566	170.90997				44.73740	1522.49573	266.57434	-239.86705	1420.39490	232.99895				-49.85531	1313.63135	427.17093	-236.48582	1536.25330	451.35944	-294.42917	1173.17517	115.54086	-37.66328	1317.66223	785.56415	-252.70770	995.47797	-57.72782	110.21672	1115.31836	767.88550	-280.71332	1015.35077	612.56433	23.29859	1014.36322	650.10516	-75.95619	908.95380	401.26886	-101.30715	516.83752	379.45172	132.50098	601.55005	631.19580	-195.68855	107.72330	477.89838	-57.82212	183.41708	708.53644	
407	4.060	-163.31789	1584.33838	192.07205	-22.95250	1428.93689	166.30910				49.01674	1521.72119	261.15503	-236.10742	1419.20972	229.27718				-45.59867	1313.15369	423.22226	-231.99078	1536.52771	447.82227	-292.25720	1172.81958	112.99734	-31.81115	1319.02454	781.77087	-250.12605	994.12756	-59.33736	116.30273	1117.23181	764.45819	-274.64975	1016.17749	612.04651	28.91422	1016.19012	647.59204	-72.43264	908.69049	398.48651	-101.27337	515.77686	380.17560	136.53687	600.92175	628.64386	-195.55325	108.01811	477.29892	-37.00494	175.78650	701.41058	
408	4.070	-159.19847	1583.19714	187.40390	-19.12264	1427.40527	162.16212				52.64960	1520.64038	256.68768	-232.45781	1418.41553	226.16917				-41.69955	1312.79016	419.65204	-226.79320	1536.20032	444.02002	-288.61133	1170.62354	110.72324	-25.76128	1320.00684	778.02289	-247.22566	992.84534	-62.16697	122.59026	1118.53162	761.20343	-268.59683	1016.52777	611.28400	33.90646	1016.42328	643.65253	-67.46229	909.06677	396.11844	-100.15458	514.75623	380.78879	139.49368	599.13391	625.33374	-195.63545	108.28075	477.31738	-15.77801	168.40445	693.49292	
409	4.080	-155.80023	1582.27881	184.09091	-15.70189	1426.24048	158.20964				56.48321	1519.01440	252.41444	-229.22743	1417.37915	223.26308				-37.32879	1311.97681	416.40338	-222.35081	1535.67334	440.51779	-286.11697	1170.21167	108.75432	-19.62210	1320.93225	774.59039	-244.82318	991.92267	-64.40096	128.79939	1119.56055	758.65094	-262.62704	1016.24646	610.24347	38.34494	1016.28003	640.25885	-63.53662	909.08240	394.06094	-99.29495	513.97815	381.51321	141.79710	597.60516	623.89960	-195.64459	108.35693	477.25339	5.32123	161.98447	685.74329	
